<svg xmlns="http://www.w3.org/2000/svg" xmlns:xlink="http://www.w3.org/1999/xlink" xmlns:svgjs="http://svgjs.com/svgjs" width="512" height="512" x="0" y="0" viewBox="0 0 64 64" style="enable-background:new 0 0 512 512" xml:space="preserve" class=""><g><path d="M38.5 37H31c-.6 0-1-.4-1-1s.4-1 1-1h7.5c.6 0 1 .4 1 1s-.4 1-1 1zM25 37H2c-.6 0-1-.4-1-1v-4c0-.6.4-1 1-1h33c.6 0 1 .4 1 1s-.4 1-1 1H3v2h22c.6 0 1 .4 1 1s-.4 1-1 1zM62 37h-4.5c-.6 0-1-.4-1-1s.4-1 1-1H61v-2h-2.8c-.6 0-1-.4-1-1s.4-1 1-1H62c.6 0 1 .4 1 1v4c0 .6-.4 1-1 1z" fill="#ffffff" data-original="#000000" opacity="1" class=""></path><path d="M62 63c-.6 0-1-.4-1-1V36c0-.6.4-1 1-1s1 .4 1 1v26c0 .6-.4 1-1 1zM2 63c-.6 0-1-.4-1-1V36c0-.6.4-1 1-1s1 .4 1 1v26c0 .6-.4 1-1 1zM16 63c-.6 0-1-.4-1-1V32c0-.6.4-1 1-1s1 .4 1 1v30c0 .6-.4 1-1 1zM14 33c-.6 0-1-.4-1-1V21H7v11c0 .6-.4 1-1 1s-1-.4-1-1V20c0-.6.4-1 1-1h8c.6 0 1 .4 1 1v12c0 .6-.4 1-1 1z" fill="#ffffff" data-original="#000000" opacity="1" class=""></path><path d="M6 29H3c-1.1 0-2-.9-2-2v-4c0-1.1.9-2 2-2h3c.6 0 1 .4 1 1s-.4 1-1 1H3v4h3c.6 0 1 .4 1 1s-.4 1-1 1zM8 16.9c-.2 0-.3 0-.5-.1-.5-.3-.6-.9-.4-1.4.7-1.2.4-1.7-.2-2.6-.7-1.2-1.7-2.8.3-5.4.3-.4 1-.5 1.4-.2s.5 1 .2 1.4c-1.2 1.5-.8 2.1-.2 3.1.7 1 1.6 2.5.2 4.7-.1.3-.5.5-.8.5zM12 17c-.2 0-.4-.1-.6-.2-.4-.4-.5-1-.1-1.4.1-.1.1-.3-.2-1-.4-.9-1.1-2.5.5-4 .4-.4 1-.4 1.4 0s.4 1 0 1.4c-.5.5-.5.7 0 1.7.3.8.9 1.9-.1 3.1-.3.3-.6.4-.9.4zM36 27H20c-1.7 0-3-1.3-3-3V4c0-1.7 1.3-3 3-3h32c1.7 0 3 1.3 3 3v13c0 .6-.4 1-1 1s-1-.4-1-1V4c0-.6-.4-1-1-1H20c-.6 0-1 .4-1 1v20c0 .6.4 1 1 1h16c.6 0 1 .4 1 1s-.4 1-1 1z" fill="#ffffff" data-original="#000000" opacity="1" class=""></path><path d="M37 23H18c-.6 0-1-.4-1-1s.4-1 1-1h19c.6 0 1 .4 1 1s-.4 1-1 1zM22 12c-.3 0-.5-.1-.7-.3-.4-.4-.4-1 0-1.4l5-5c.4-.4 1-.4 1.4 0s.4 1 0 1.4l-5 5c-.2.2-.4.3-.7.3zM29 11c-.3 0-.5-.1-.7-.3-.4-.4-.4-1 0-1.4l2-2c.4-.4 1-.4 1.4 0s.4 1 0 1.4l-2 2c-.2.2-.4.3-.7.3zM22 18c-.3 0-.5-.1-.7-.3-.4-.4-.4-1 0-1.4l4-4c.4-.4 1-.4 1.4 0s.4 1 0 1.4l-4 4c-.2.2-.4.3-.7.3zM33 33c-.6 0-1-.4-1-1v-6c0-.6.4-1 1-1s1 .4 1 1v6c0 .6-.4 1-1 1zM29 63c-1.7 0-3-1.3-3-3s1.3-3 3-3 3 1.3 3 3-1.3 3-3 3zm0-4c-.6 0-1 .4-1 1s.4 1 1 1 1-.4 1-1-.4-1-1-1zM51 63c-1.7 0-3-1.3-3-3s1.3-3 3-3 3 1.3 3 3-1.3 3-3 3zm0-4c-.6 0-1 .4-1 1s.4 1 1 1 1-.4 1-1-.4-1-1-1z" fill="#ffffff" data-original="#000000" opacity="1" class=""></path><path d="M51 59c-.6 0-1-.4-1-1 0-1.1-.9-2-2-2H32c-1.1 0-2 .9-2 2 0 .6-.4 1-1 1s-1-.4-1-1c0-2.2 1.8-4 4-4h16c2.2 0 4 1.8 4 4 0 .6-.4 1-1 1zM53 50H28c-1.7 0-3-1.3-3-3s1.3-3 3-3h8.2l3.6-21.5c.2-1.5 1.5-2.5 3-2.5h14.9c.9 0 1.7.4 2.3 1.1s.8 1.6.7 2.4l-3.4 20.7c-.2.6-.3 1.2-.3 1.8 0 2.2-1.8 4-4 4zm-25-4c-.6 0-1 .4-1 1s.4 1 1 1h25c1.1 0 2-.9 2-2 0-.7.1-1.4.2-2.2l3.4-20.7c0-.3 0-.6-.2-.8s-.5-.4-.8-.4H42.7c-.5 0-.9.4-1 .8L38 45.2c-.1.5-.5.8-1 .8z" fill="#ffffff" data-original="#000000" opacity="1" class=""></path><path d="M26 47.8h-.2c-.5-.1-.9-.6-.8-1.1v-.2l1.2-7.5c.4-2.3 2.4-4 4.7-4H32c.6 0 1 .4 1 1s-.4 1-1 1h-1c-1.4 0-2.5 1-2.7 2.3L27 46.9c-.1.5-.5.9-1 .9zM38 56c-.6 0-1-.4-1-1v-6c0-.6.4-1 1-1s1 .4 1 1v6c0 .6-.4 1-1 1zM42 56c-.6 0-1-.4-1-1v-6c0-.6.4-1 1-1s1 .4 1 1v6c0 .6-.4 1-1 1z" fill="#ffffff" data-original="#000000" opacity="1" class=""></path></g></svg>