<svg xmlns="http://www.w3.org/2000/svg" xmlns:xlink="http://www.w3.org/1999/xlink" xmlns:svgjs="http://svgjs.com/svgjs" width="512" height="512" x="0" y="0" viewBox="0 0 682.667 682.667" style="enable-background:new 0 0 512 512" xml:space="preserve" class=""><g><defs><clipPath id="a" clipPathUnits="userSpaceOnUse"><path d="M0 512h512V0H0Z" fill="#ffffff" data-original="#000000" opacity="1"></path></clipPath></defs><g clip-path="url(#a)" transform="matrix(1.33333 0 0 -1.33333 0 682.667)"><path d="M0 0c19.826-24.36 31.665-55.46 31.495-89.259-.178-35.286-13.368-67.491-35.014-92.072-2.077-2.359-2.596-5.722-1.233-8.554 5.477-11.379 11.676-19.958 15.865-25.102 2.319-2.847.593-7.137-3.048-7.618-16.219-2.144-35.921 5.993-44.419 10.008a7.807 7.807 0 0 1-6.997-.168c-19.08-10.102-40.763-15.943-63.785-16.239-76.571-.988-141.335 62.058-142.314 138.629-1.003 78.426 62.271 142.316 140.466 142.317 31.321 0 60.271-10.302 83.651-27.69" style="stroke-width:15;stroke-linecap:round;stroke-linejoin:round;stroke-miterlimit:10;stroke-dasharray:none;stroke-opacity:1" transform="translate(260.17 452.245)" fill="none" stroke="#ffffff" stroke-width="15" stroke-linecap="round" stroke-linejoin="round" stroke-miterlimit="10" stroke-dasharray="none" stroke-opacity="" data-original="#000000" opacity="1"></path><path d="M0 0c0-10.497 8.51-19.007 19.007-19.007 10.497 0 19.007 8.51 19.007 19.007 0 10.498-8.51 19.007-19.007 19.007C8.51 19.007 0 10.498 0 0Z" style="stroke-width:15;stroke-linecap:round;stroke-linejoin:round;stroke-miterlimit:10;stroke-dasharray:none;stroke-opacity:1" transform="translate(204.9 363.775)" fill="none" stroke="#ffffff" stroke-width="15" stroke-linecap="round" stroke-linejoin="round" stroke-miterlimit="10" stroke-dasharray="none" stroke-opacity="" data-original="#000000" opacity="1"></path><path d="M0 0c0-10.497 8.509-19.007 19.007-19.007 10.497 0 19.007 8.51 19.007 19.007 0 10.498-8.51 19.007-19.007 19.007C8.509 19.007 0 10.498 0 0Z" style="stroke-width:15;stroke-linecap:round;stroke-linejoin:round;stroke-miterlimit:10;stroke-dasharray:none;stroke-opacity:1" transform="translate(132.18 363.775)" fill="none" stroke="#ffffff" stroke-width="15" stroke-linecap="round" stroke-linejoin="round" stroke-miterlimit="10" stroke-dasharray="none" stroke-opacity="" data-original="#000000" opacity="1"></path><path d="M0 0c0-10.497 8.51-19.007 19.007-19.007 10.497 0 19.007 8.51 19.007 19.007 0 10.498-8.51 19.007-19.007 19.007C8.51 19.007 0 10.498 0 0Z" style="stroke-width:15;stroke-linecap:round;stroke-linejoin:round;stroke-miterlimit:10;stroke-dasharray:none;stroke-opacity:1" transform="translate(59.46 363.775)" fill="none" stroke="#ffffff" stroke-width="15" stroke-linecap="round" stroke-linejoin="round" stroke-miterlimit="10" stroke-dasharray="none" stroke-opacity="" data-original="#000000" opacity="1"></path><path d="M0 0c-15.575-15.908-31.976-31.452-49.009-46.833-18.838-16.997-36.742-32.342-58.58-47.673-12.851 5.532-24.45 13.424-34.582 24.05-19.331 20.251-20.704 39.208-1 59.019 17.838 17.932 37.796 33.956 58.006 49.234 17.211 13.012 30.583 12.225 47.594-1.147 9.653-7.585 17.891-17.024 26.37-25.996z" style="stroke-width:15;stroke-linecap:round;stroke-linejoin:round;stroke-miterlimit:10;stroke-dasharray:none;stroke-opacity:1" transform="translate(287.349 111.215)" fill="none" stroke="#ffffff" stroke-width="15" stroke-linecap="round" stroke-linejoin="round" stroke-miterlimit="10" stroke-dasharray="none" stroke-opacity="" data-original="#000000" opacity="1"></path><path d="M0 0c15.18 43.911 28.692 90.054 40.182 136.086a91.387 91.387 0 0 1-2.853 2.293C21.771 150.405.867 163.43-19.638 159.484c-15.824-3.04-25.77-15.519-30.342-30.263-6.906-22.304-14.052-44.581-19.505-67.259-4.786-19.93 1.454-31.755 19.971-41.141C-37.622 14.782-25.17 9.835-12.785 4.85Z" style="stroke-width:15;stroke-linecap:round;stroke-linejoin:round;stroke-miterlimit:10;stroke-dasharray:none;stroke-opacity:1" transform="translate(419.73 317.821)" fill="none" stroke="#ffffff" stroke-width="15" stroke-linecap="round" stroke-linejoin="round" stroke-miterlimit="10" stroke-dasharray="none" stroke-opacity="" data-original="#000000" opacity="1"></path><path d="M0 0c-1.425 10.224-3.969 20.168-7.909 29.581C-19.7 57.75-41.762 80.943-69.516 93.407c-12.291 5.52-26.217 8.202-38.999 2.598-6.221-2.728-11.279-7.103-15.201-12.502-2.692-3.666-4.852-7.833-6.53-12.425-.359-.976-15.06-47.542-20.513-70.219-3.645-15.18-.887-25.655 8.813-33.935 16.237-13.859 41.027-20.586 60.672-28.028l-4.704-13.422c-25.202-70.568-64.727-131.853-118.824-183.694l-8.854-9.489-11.204 10.647c-8.473 8.984-16.716 18.424-26.362 26.007-17.01 13.374-30.386 14.154-47.595 1.148-20.219-15.281-40.17-31.314-58.008-49.239-19.709-19.808-18.333-38.77.994-59.025 41.492-43.484 103.838-40.293 153.328-11.478 33.407 19.451 62.342 44.431 90.014 71.091 47.676 50.529 80.523 112.399 101.653 182.772C-5.847-79.167-1.652-61.031.287-42.704" style="stroke-width:15;stroke-linecap:round;stroke-linejoin:round;stroke-miterlimit:10;stroke-dasharray:none;stroke-opacity:1" transform="translate(501.004 378.925)" fill="none" stroke="#ffffff" stroke-width="15" stroke-linecap="round" stroke-linejoin="round" stroke-miterlimit="10" stroke-dasharray="none" stroke-opacity="" data-original="#000000" opacity="1"></path></g></g></svg>