<svg xmlns="http://www.w3.org/2000/svg" xmlns:xlink="http://www.w3.org/1999/xlink" xmlns:svgjs="http://svgjs.com/svgjs" width="512" height="512" x="0" y="0" viewBox="0 0 682.667 682.667" style="enable-background:new 0 0 512 512" xml:space="preserve" class=""><g><defs><clipPath id="a" clipPathUnits="userSpaceOnUse"><path d="M0 512h512V0H0Z" fill="#4659e2" data-original="#000000" opacity="1"></path></clipPath></defs><path d="M0 0h142.25" style="stroke-width:15;stroke-linecap:round;stroke-linejoin:round;stroke-miterlimit:10;stroke-dasharray:none;stroke-opacity:1" transform="matrix(1.33333 0 0 -1.33333 246.5 169.73)" fill="none" stroke="#4659e2" stroke-width="15" stroke-linecap="round" stroke-linejoin="round" stroke-miterlimit="10" stroke-dasharray="none" stroke-opacity="" data-original="#000000" class="" opacity="1"></path><g clip-path="url(#a)" transform="matrix(1.33333 0 0 -1.33333 0 682.667)"><path d="M0 0v-19.512a9.18 9.18 0 0 1 9.18-9.18h205.642a9.18 9.18 0 0 1 9.18 9.18V0a9.18 9.18 0 0 1-9.18 9.18H9.18A9.18 9.18 0 0 1 0 0Z" style="stroke-width:15;stroke-linecap:round;stroke-linejoin:round;stroke-miterlimit:10;stroke-dasharray:none;stroke-opacity:1" transform="translate(143.999 311.905)" fill="none" stroke="#4659e2" stroke-width="15" stroke-linecap="round" stroke-linejoin="round" stroke-miterlimit="10" stroke-dasharray="none" stroke-opacity="" data-original="#000000" class="" opacity="1"></path><path d="M0 0v-19.512a9.18 9.18 0 0 1 9.18-9.179h205.642a9.18 9.18 0 0 1 9.18 9.179V0a9.18 9.18 0 0 1-9.18 9.18H9.18A9.18 9.18 0 0 1 0 0Z" style="stroke-width:15;stroke-linecap:round;stroke-linejoin:round;stroke-miterlimit:10;stroke-dasharray:none;stroke-opacity:1" transform="translate(143.999 227.014)" fill="none" stroke="#4659e2" stroke-width="15" stroke-linecap="round" stroke-linejoin="round" stroke-miterlimit="10" stroke-dasharray="none" stroke-opacity="" data-original="#000000" class="" opacity="1"></path><path d="M0 0h-34.89c-10.063 0-18.221-8.158-18.221-18.222v-1.019c0-10.064 8.158-18.222 18.221-18.222H0c10.063 0 18.222 8.158 18.222 18.222v1.019C18.222-8.158 10.063 0 0 0Z" style="stroke-width:15;stroke-linecap:round;stroke-linejoin:round;stroke-miterlimit:10;stroke-dasharray:none;stroke-opacity:1" transform="translate(273.445 145.912)" fill="none" stroke="#4659e2" stroke-width="15" stroke-linecap="round" stroke-linejoin="round" stroke-miterlimit="10" stroke-dasharray="none" stroke-opacity="" data-original="#000000" class="" opacity="1"></path><path d="M0 0h-314.591c-11.85 0-21.457-9.607-21.457-21.458v-54.354H21.458v54.354C21.458-9.607 11.851 0 0 0Z" style="stroke-width:15;stroke-linecap:round;stroke-linejoin:round;stroke-miterlimit:10;stroke-dasharray:none;stroke-opacity:1" transform="translate(413.295 504.5)" fill="none" stroke="#4659e2" stroke-width="15" stroke-linecap="round" stroke-linejoin="round" stroke-miterlimit="10" stroke-dasharray="none" stroke-opacity="" data-original="#000000" class="" opacity="1"></path><path d="M0 0v-303.182c0-11.851 9.607-21.458 21.458-21.458H214.42" style="stroke-width:15;stroke-linecap:round;stroke-linejoin:round;stroke-miterlimit:10;stroke-dasharray:none;stroke-opacity:1" transform="translate(77.247 369.704)" fill="none" stroke="#4659e2" stroke-width="15" stroke-linecap="round" stroke-linejoin="round" stroke-miterlimit="10" stroke-dasharray="none" stroke-opacity="" data-original="#000000" class="" opacity="1"></path><path d="M0 0c7.702 3.258 13.106 10.884 13.106 19.772v416.52c0 11.851-9.607 21.458-21.458 21.458h-314.591c-11.85 0-21.458-9.607-21.458-21.458v-83.339" style="stroke-width:15;stroke-linecap:round;stroke-linejoin:round;stroke-miterlimit:10;stroke-dasharray:none;stroke-opacity:1" transform="translate(421.647 46.75)" fill="none" stroke="#4659e2" stroke-width="15" stroke-linecap="round" stroke-linejoin="round" stroke-miterlimit="10" stroke-dasharray="none" stroke-opacity="" data-original="#000000" class="" opacity="1"></path><path d="M0 0c-8.53 0-15.445-6.915-15.445-15.445 0-8.53 6.915-15.445 15.445-15.445 8.53 0 15.445 6.915 15.445 15.445C15.445-6.915 8.53 0 0 0Z" style="stroke-width:15;stroke-linecap:round;stroke-linejoin:round;stroke-miterlimit:10;stroke-dasharray:none;stroke-opacity:1" transform="translate(124.85 482.04)" fill="none" stroke="#4659e2" stroke-width="15" stroke-linecap="round" stroke-linejoin="round" stroke-miterlimit="10" stroke-dasharray="none" stroke-opacity="" data-original="#000000" class="" opacity="1"></path><path d="M0 0c-8.53 0-15.445-6.915-15.445-15.445 0-8.53 6.915-15.445 15.445-15.445 8.53 0 15.445 6.915 15.445 15.445C15.445-6.915 8.53 0 0 0Z" style="stroke-width:15;stroke-linecap:round;stroke-linejoin:round;stroke-miterlimit:10;stroke-dasharray:none;stroke-opacity:1" transform="translate(184.875 482.04)" fill="none" stroke="#4659e2" stroke-width="15" stroke-linecap="round" stroke-linejoin="round" stroke-miterlimit="10" stroke-dasharray="none" stroke-opacity="" data-original="#000000" class="" opacity="1"></path><path d="M0 0c-8.53 0-15.445-6.915-15.445-15.445 0-8.53 6.915-15.445 15.445-15.445 8.53 0 15.445 6.915 15.445 15.445C15.445-6.915 8.53 0 0 0Z" style="stroke-width:15;stroke-linecap:round;stroke-linejoin:round;stroke-miterlimit:10;stroke-dasharray:none;stroke-opacity:1" transform="translate(244.9 482.04)" fill="none" stroke="#4659e2" stroke-width="15" stroke-linecap="round" stroke-linejoin="round" stroke-miterlimit="10" stroke-dasharray="none" stroke-opacity="" data-original="#000000" class="" opacity="1"></path><path d="m0 0-77.813 44.925c-3.525 2.035-7.932-.508-7.932-4.579v-89.851c0-4.07 4.407-6.615 7.932-4.579l20.045 11.572a6.166 6.166 0 0 0 8.424-2.257l15.189-26.308a5.923 5.923 0 0 1 8.09-2.167l16.784 9.691a5.921 5.921 0 0 1 2.168 8.089l-15.189 26.308a6.167 6.167 0 0 0 2.258 8.424L0-9.159C3.525-7.124 3.525-2.035 0 0Z" style="stroke-width:15;stroke-linecap:round;stroke-linejoin:round;stroke-miterlimit:10;stroke-dasharray:none;stroke-opacity:1" transform="translate(407.856 81.539)" fill="none" stroke="#4659e2" stroke-width="15" stroke-linecap="round" stroke-linejoin="round" stroke-miterlimit="10" stroke-dasharray="none" stroke-opacity="" data-original="#000000" class="" opacity="1"></path></g></g></svg>