<svg xmlns="http://www.w3.org/2000/svg" xmlns:xlink="http://www.w3.org/1999/xlink" xmlns:svgjs="http://svgjs.com/svgjs" width="512" height="512" x="0" y="0" viewBox="0 0 682.667 682.667" style="enable-background:new 0 0 512 512" xml:space="preserve" class=""><g><defs><clipPath id="a" clipPathUnits="userSpaceOnUse"><path d="M0 512h512V0H0Z" fill="#012068" data-original="#000000" opacity="1"></path></clipPath></defs><g clip-path="url(#a)" transform="matrix(1.33333 0 0 -1.33333 0 682.667)"><path d="M0 0c-9.839 25.42-15.234 53.053-15.234 81.945 0 74.22 35.604 140.124 90.667 181.563" style="stroke-width:15;stroke-linecap:round;stroke-linejoin:round;stroke-miterlimit:10;stroke-dasharray:0, 42;stroke-dashoffset:0;stroke-opacity:1" transform="translate(44.142 184.055)" fill="none" stroke="#012068" stroke-width="15" stroke-linecap="round" stroke-linejoin="round" stroke-miterlimit="10" stroke-dasharray="0, 42" stroke-dashoffset="0" stroke-opacity="" data-original="#000000" class="" opacity="1"></path><path d="M0 0c53.799-41.528 88.45-106.654 88.45-179.874 0-125.42-101.673-227.093-227.093-227.093-6.713 0-13.359.291-19.924.862-6.484.564-12.889 1.4-19.204 2.497" style="stroke-width:15;stroke-linecap:round;stroke-linejoin:round;stroke-miterlimit:10;stroke-dasharray:0, 42;stroke-dashoffset:0;stroke-opacity:1" transform="translate(394.643 445.874)" fill="none" stroke="#012068" stroke-width="15" stroke-linecap="round" stroke-linejoin="round" stroke-miterlimit="10" stroke-dasharray="0, 42" stroke-dashoffset="0" stroke-opacity="" data-original="#000000" class="" opacity="1"></path><path d="m0 0 20.254 20.347v178.965c0 13.197 10.648 23.895 23.785 23.895 13.136 0 23.785-10.698 23.785-23.895v-90.744c46.003-19.906 58.028-85.974 30.793-125.577" style="stroke-width:15;stroke-linecap:round;stroke-linejoin:round;stroke-miterlimit:10;stroke-dasharray:none;stroke-opacity:1" transform="translate(90.784 146.308)" fill="none" stroke="#012068" stroke-width="15" stroke-linecap="round" stroke-linejoin="round" stroke-miterlimit="10" stroke-dasharray="none" stroke-opacity="" data-original="#000000" class="" opacity="1"></path><path d="M0 0c-15.199-31.363-47.232-52.977-84.291-52.977l-10.682.498-20.597-20.693" style="stroke-width:15;stroke-linecap:round;stroke-linejoin:round;stroke-miterlimit:10;stroke-dasharray:none;stroke-opacity:1" transform="translate(289.022 137.339)" fill="none" stroke="#012068" stroke-width="15" stroke-linecap="round" stroke-linejoin="round" stroke-miterlimit="10" stroke-dasharray="none" stroke-opacity="" data-original="#000000" class="" opacity="1"></path><path d="M0 0v-79.365c0-12.462-10.103-22.566-22.564-22.566h-140.923" style="stroke-width:15;stroke-linecap:round;stroke-linejoin:round;stroke-miterlimit:10;stroke-dasharray:none;stroke-opacity:1" transform="translate(359.228 242.39)" fill="none" stroke="#012068" stroke-width="15" stroke-linecap="round" stroke-linejoin="round" stroke-miterlimit="10" stroke-dasharray="none" stroke-opacity="" data-original="#000000" class="" opacity="1"></path><path d="M0 0h95.03c12.462 0 22.565-10.103 22.565-22.565v-64.041" style="stroke-width:15;stroke-linecap:round;stroke-linejoin:round;stroke-miterlimit:10;stroke-dasharray:none;stroke-opacity:1" transform="translate(241.634 504.5)" fill="none" stroke="#012068" stroke-width="15" stroke-linecap="round" stroke-linejoin="round" stroke-miterlimit="10" stroke-dasharray="none" stroke-opacity="" data-original="#000000" class="" opacity="1"></path><path d="M0 0v227.059c0 12.462 10.104 22.565 22.565 22.565h19.037" style="stroke-width:15;stroke-linecap:round;stroke-linejoin:round;stroke-miterlimit:10;stroke-dasharray:none;stroke-opacity:1" transform="translate(159.049 254.876)" fill="none" stroke="#012068" stroke-width="15" stroke-linecap="round" stroke-linejoin="round" stroke-miterlimit="10" stroke-dasharray="none" stroke-opacity="" data-original="#000000" class="" opacity="1"></path><path d="M0 0h-155.041" style="stroke-width:15;stroke-linecap:round;stroke-linejoin:round;stroke-miterlimit:10;stroke-dasharray:none;stroke-opacity:1" transform="translate(359.228 190.032)" fill="none" stroke="#012068" stroke-width="15" stroke-linecap="round" stroke-linejoin="round" stroke-miterlimit="10" stroke-dasharray="none" stroke-opacity="" data-original="#000000" class="" opacity="1"></path><path d="M0 0h200.18" style="stroke-width:15;stroke-linecap:round;stroke-linejoin:round;stroke-miterlimit:10;stroke-dasharray:none;stroke-opacity:1" transform="translate(159.049 470.466)" fill="none" stroke="#012068" stroke-width="15" stroke-linecap="round" stroke-linejoin="round" stroke-miterlimit="10" stroke-dasharray="none" stroke-opacity="" data-original="#000000" class="" opacity="1"></path><path d="M0 0v.101c0 12.073 9.787 21.86 21.86 21.86h13.095c12.073 0 21.861-9.787 21.861-21.86V0c0-12.073-9.788-21.861-21.861-21.861H21.86C9.787-21.861 0-12.073 0 0Z" style="stroke-width:15;stroke-linecap:round;stroke-linejoin:round;stroke-miterlimit:10;stroke-dasharray:none;stroke-opacity:1" transform="translate(328.06 395.933)" fill="none" stroke="#012068" stroke-width="15" stroke-linecap="round" stroke-linejoin="round" stroke-miterlimit="10" stroke-dasharray="none" stroke-opacity="" data-original="#000000" class="" opacity="1"></path><path d="M0 0v.1c0 12.074 9.787 21.861 21.86 21.861h13.095c12.073 0 21.861-9.787 21.861-21.861V0c0-12.073-9.788-21.861-21.861-21.861H21.86C9.787-21.861 0-12.073 0 0Z" style="stroke-width:15;stroke-linecap:round;stroke-linejoin:round;stroke-miterlimit:10;stroke-dasharray:none;stroke-opacity:1" transform="translate(328.06 352.11)" fill="none" stroke="#012068" stroke-width="15" stroke-linecap="round" stroke-linejoin="round" stroke-miterlimit="10" stroke-dasharray="none" stroke-opacity="" data-original="#000000" class="" opacity="1"></path><path d="M0 0v.1c0 12.074 9.787 21.861 21.86 21.861h13.095c12.073 0 21.861-9.787 21.861-21.861V0c0-12.074-9.788-21.861-21.861-21.861H21.86C9.787-21.861 0-12.074 0 0Z" style="stroke-width:15;stroke-linecap:round;stroke-linejoin:round;stroke-miterlimit:10;stroke-dasharray:none;stroke-opacity:1" transform="translate(328.06 308.288)" fill="none" stroke="#012068" stroke-width="15" stroke-linecap="round" stroke-linejoin="round" stroke-miterlimit="10" stroke-dasharray="none" stroke-opacity="" data-original="#000000" class="" opacity="1"></path><path d="M0 0v.1c0 12.074 9.787 21.861 21.86 21.861h13.095c12.073 0 21.861-9.787 21.861-21.861V0c0-12.074-9.788-21.861-21.861-21.861H21.86C9.787-21.861 0-12.074 0 0Z" style="stroke-width:15;stroke-linecap:round;stroke-linejoin:round;stroke-miterlimit:10;stroke-dasharray:none;stroke-opacity:1" transform="translate(328.06 264.466)" fill="none" stroke="#012068" stroke-width="15" stroke-linecap="round" stroke-linejoin="round" stroke-miterlimit="10" stroke-dasharray="none" stroke-opacity="" data-original="#000000" class="" opacity="1"></path><path d="m0 0 2.938-2.951c12.968-13.028 34.007-13.028 46.976 0 12.952 13.012 12.952 34.096 0 47.108l-77.425 77.78c-12.968 13.028-34.007 13.028-46.975 0-12.953-13.012-12.953-34.097 0-47.109l46.421-46.634" style="stroke-width:15;stroke-linecap:round;stroke-linejoin:round;stroke-miterlimit:10;stroke-dasharray:none;stroke-opacity:1" transform="translate(123.324 20.223)" fill="none" stroke="#012068" stroke-width="15" stroke-linecap="round" stroke-linejoin="round" stroke-miterlimit="10" stroke-dasharray="none" stroke-opacity="" data-original="#000000" class="" opacity="1"></path><path d="m0 0 21.953 22.534" style="stroke-width:15;stroke-linecap:round;stroke-linejoin:round;stroke-miterlimit:10;stroke-dasharray:none;stroke-opacity:1" transform="translate(193.21 411.505)" fill="none" stroke="#012068" stroke-width="15" stroke-linecap="round" stroke-linejoin="round" stroke-miterlimit="10" stroke-dasharray="none" stroke-opacity="" data-original="#000000" class="" opacity="1"></path><path d="m0 0 68.929 70.755" style="stroke-width:15;stroke-linecap:round;stroke-linejoin:round;stroke-miterlimit:10;stroke-dasharray:none;stroke-opacity:1" transform="translate(193.21 363.284)" fill="none" stroke="#012068" stroke-width="15" stroke-linecap="round" stroke-linejoin="round" stroke-miterlimit="10" stroke-dasharray="none" stroke-opacity="" data-original="#000000" class="" opacity="1"></path></g></g></svg>