<svg xmlns="http://www.w3.org/2000/svg" xmlns:xlink="http://www.w3.org/1999/xlink" xmlns:svgjs="http://svgjs.com/svgjs" width="512" height="512" x="0" y="0" viewBox="0 0 512.1 512.1" style="enable-background:new 0 0 512 512" xml:space="preserve" class=""><g><g transform="translate(0 -1)"><path d="M349.917 188.834H332.85a8.533 8.533 0 0 0 0 17.066h17.067c14.138 0 25.6-11.462 25.6-25.6 0-14.139-11.462-25.6-25.6-25.6a8.533 8.533 0 0 1 0-17.066h17.067a8.533 8.533 0 0 0 0-17.066h-17.067c-14.138 0-25.6 11.462-25.6 25.6 0 14.139 11.462 25.6 25.6 25.6a8.533 8.533 0 0 1 0 17.066z" fill="#4659e2" data-original="#000000" opacity="1" class=""></path><path d="M469.383 86.434H311.175l-27.162-31.727c9.93-14.187 7.663-33.562-5.273-45.073-12.937-11.511-32.444-11.511-45.38 0-12.937 11.511-15.204 30.886-5.273 45.073l-27.162 31.727H42.717C19.164 86.462.078 105.548.05 129.1v341.333c.028 23.552 19.114 42.638 42.667 42.667h426.667c23.552-.028 42.638-19.114 42.667-42.667V129.1c-.029-23.552-19.115-42.638-42.668-42.666zM256.05 18.167c9.426 0 17.067 7.641 17.067 17.067S265.476 52.3 256.05 52.3s-17.067-7.641-17.067-17.067 7.641-17.066 17.067-17.066zm-14.967 47.599a32.903 32.903 0 0 0 29.935 0l17.69 20.668h-65.314zm253.9 404.668c0 14.138-11.462 25.6-25.6 25.6H42.717c-14.138 0-25.6-11.462-25.6-25.6V129.1c0-14.138 11.462-25.6 25.6-25.6h426.667c14.138 0 25.6 11.462 25.6 25.6v341.334z" fill="#4659e2" data-original="#000000" opacity="1" class=""></path><circle cx="42.717" cy="129.1" r="8.533" fill="#4659e2" data-original="#000000" opacity="1" class=""></circle><circle cx="42.717" cy="470.434" r="8.533" fill="#4659e2" data-original="#000000" opacity="1" class=""></circle><circle cx="469.383" cy="129.1" r="8.533" fill="#4659e2" data-original="#000000" opacity="1" class=""></circle><circle cx="469.383" cy="470.434" r="8.533" fill="#4659e2" data-original="#000000" opacity="1" class=""></circle><path d="M170.717 180.3v-51.2a8.533 8.533 0 0 0-17.066 0v51.2a8.533 8.533 0 0 1-8.533 8.533h-8.533a8.533 8.533 0 0 0 0 17.066h8.533c14.137.001 25.599-11.46 25.599-25.599zM213.383 205.9c14.138 0 25.6-11.462 25.6-25.6v-34.133c0-14.138-11.462-25.6-25.6-25.6-14.139 0-25.6 11.462-25.6 25.6V180.3c0 14.139 11.462 25.6 25.6 25.6zm-8.533-59.733a8.533 8.533 0 0 1 17.066 0V180.3a8.533 8.533 0 0 1-17.066 0zM264.583 205.9h17.067a25.489 25.489 0 0 0 18.944-42.666 25.49 25.49 0 0 0-18.944-42.666h-17.067a8.533 8.533 0 0 0-8.533 8.533v68.267a8.533 8.533 0 0 0 8.533 8.532zm17.067-17.066h-8.533v-17.067h8.533a8.533 8.533 0 0 1 0 17.067zm-8.533-51.2h8.533a8.533 8.533 0 0 1 0 17.066h-8.533zM119.517 214.434h-51.2c-9.426 0-17.067 7.641-17.067 17.067v34.133c0 9.426 7.641 17.067 17.067 17.067h51.2c9.426 0 17.067-7.641 17.067-17.067V231.5c-.001-9.425-7.642-17.066-17.067-17.066zm-51.2 51.2V231.5h51.2v34.133h-51.2zM119.517 299.767h-51.2c-9.426 0-17.067 7.641-17.067 17.067v34.133c0 9.426 7.641 17.067 17.067 17.067h51.2c9.426 0 17.067-7.641 17.067-17.067v-34.133c-.001-9.426-7.642-17.067-17.067-17.067zm-51.2 51.2v-34.133h51.2v34.133zM119.517 385.1h-51.2c-9.426 0-17.067 7.641-17.067 17.067V436.3c0 9.426 7.641 17.067 17.067 17.067h51.2c9.426 0 17.067-7.641 17.067-17.067v-34.133c-.001-9.426-7.642-17.067-17.067-17.067zm-51.2 51.2v-34.133h51.2V436.3zM153.65 231.5a8.533 8.533 0 0 0 8.533 8.533h290.133a8.533 8.533 0 0 0 0-17.066H162.183a8.533 8.533 0 0 0-8.533 8.533zM162.183 274.167h204.8a8.533 8.533 0 0 0 0-17.066h-204.8a8.533 8.533 0 0 0 0 17.066zM460.85 316.834a8.533 8.533 0 0 0-8.533-8.533H162.183c-4.713 0-8.533 3.82-8.533 8.533s3.82 8.533 8.533 8.533h290.133a8.533 8.533 0 0 0 8.534-8.533zM162.183 342.434c-4.713 0-8.533 3.82-8.533 8.533s3.82 8.533 8.533 8.533h204.8a8.533 8.533 0 0 0 0-17.066zM452.317 393.634H162.183a8.533 8.533 0 0 0 0 17.066h290.133c4.713 0 8.533-3.82 8.533-8.533s-3.819-8.533-8.532-8.533zM366.983 427.767h-204.8c-4.713 0-8.533 3.82-8.533 8.533s3.82 8.533 8.533 8.533h204.8c4.713 0 8.533-3.82 8.533-8.533s-3.82-8.533-8.533-8.533z" fill="#4659e2" data-original="#000000" opacity="1" class=""></path></g></g></svg>