<svg xmlns="http://www.w3.org/2000/svg" xmlns:xlink="http://www.w3.org/1999/xlink" xmlns:svgjs="http://svgjs.com/svgjs" width="512" height="512" x="0" y="0" viewBox="0 0 682.667 682.667" style="enable-background:new 0 0 512 512" xml:space="preserve" class=""><g><defs><clipPath id="a" clipPathUnits="userSpaceOnUse"><path d="M0 512h512V0H0Z" fill="#ffffff" data-original="#000000" opacity="1"></path></clipPath></defs><g clip-path="url(#a)" transform="matrix(1.33333 0 0 -1.33333 0 682.667)"><path d="M0 0v75.313c0 10.809 8.763 19.571 19.571 19.571h52.323c10.808 0 19.571-8.762 19.571-19.571v-219.064c0-10.81-8.763-19.572-19.571-19.572H19.571C8.763-163.323 0-154.561 0-143.751v109.532" style="stroke-width:15;stroke-linecap:round;stroke-linejoin:round;stroke-miterlimit:10;stroke-dasharray:none;stroke-opacity:1" transform="translate(7.72 171.894)" fill="none" stroke="#ffffff" stroke-width="15" stroke-linecap="round" stroke-linejoin="round" stroke-miterlimit="10" stroke-dasharray="none" stroke-opacity="" data-original="#000000" opacity="1" class=""></path><path d="M0 0h-79.016s-2.435 7.495-3.501 9.771c-2.314 4.943-3.213 10.434-2.506 15.847 1.581 12.107 1.998 24.458 2.36 36.048.598 19.115-1.737 41.08-14.858 56.001-10.741 12.217-26.514 19.306-42.789 19.2-6.28-.04-11.292-5.28-11.292-11.56V91.996c0-25.777-4.751-54.98-21.457-75.558-22.081-27.199-41.831-23.525-73.021-23.57v-183.781h17.64c6.672 0 13.122-2.304 18.342-6.46 8.514-6.776 25.147-24.254 50.706-24.254H0" style="stroke-width:15;stroke-linecap:round;stroke-linejoin:round;stroke-miterlimit:10;stroke-dasharray:none;stroke-opacity:1" transform="translate(345.266 237.883)" fill="none" stroke="#ffffff" stroke-width="15" stroke-linecap="round" stroke-linejoin="round" stroke-miterlimit="10" stroke-dasharray="none" stroke-opacity="" data-original="#000000" opacity="1" class=""></path><path d="m0 0 1.434-8.36c2.963-17.284-15.177-30.464-30.699-22.304l-39.226 20.623a21.156 21.156 0 0 1-19.692 0l-39.226-20.623c-15.522-8.16-33.662 5.02-30.697 22.304l7.491 43.679a21.158 21.158 0 0 1-6.085 18.727l-31.735 30.934c-12.557 12.241-5.627 33.566 11.726 36.088l43.856 6.373a21.158 21.158 0 0 1 15.93 11.574l19.613 39.74c7.761 15.725 30.185 15.725 37.946 0l19.613-39.74a21.158 21.158 0 0 1 15.93-11.574l43.856-6.373c17.355-2.522 24.283-23.847 11.726-36.088L.026 54.046a21.16 21.16 0 0 1-6.085-18.727l.249-1.452" style="stroke-width:15;stroke-linecap:round;stroke-linejoin:round;stroke-miterlimit:10;stroke-dasharray:none;stroke-opacity:1" transform="translate(466.106 312.88)" fill="none" stroke="#ffffff" stroke-width="15" stroke-linecap="round" stroke-linejoin="round" stroke-miterlimit="10" stroke-dasharray="none" stroke-opacity="" data-original="#000000" opacity="1" class=""></path><path d="M0 0h-64.015c-15.291 0-27.686 12.396-27.686 27.687 0 15.29 12.395 27.686 27.686 27.686H0c15.291 0 27.687-12.396 27.687-27.686C27.687 12.396 15.291 0 0 0Z" style="stroke-width:15;stroke-linecap:round;stroke-linejoin:round;stroke-miterlimit:10;stroke-dasharray:none;stroke-opacity:1" transform="translate(385.786 182.373)" fill="none" stroke="#ffffff" stroke-width="15" stroke-linecap="round" stroke-linejoin="round" stroke-miterlimit="10" stroke-dasharray="none" stroke-opacity="" data-original="#000000" opacity="1" class=""></path><path d="M0 0h-64.015c-15.291 0-27.686 12.396-27.686 27.687 0 15.29 12.395 27.686 27.686 27.686H0c15.291 0 27.687-12.396 27.687-27.686C27.687 12.396 15.291 0 0 0Z" style="stroke-width:15;stroke-linecap:round;stroke-linejoin:round;stroke-miterlimit:10;stroke-dasharray:none;stroke-opacity:1" transform="translate(385.786 71.626)" fill="none" stroke="#ffffff" stroke-width="15" stroke-linecap="round" stroke-linejoin="round" stroke-miterlimit="10" stroke-dasharray="none" stroke-opacity="" data-original="#000000" opacity="1" class=""></path><path d="M0 0h-64.015c-15.291 0-27.686 12.396-27.686 27.686 0 15.291 12.395 27.686 27.686 27.686H0c15.29 0 27.686-12.395 27.686-27.686C27.686 12.396 15.29 0 0 0Z" style="stroke-width:15;stroke-linecap:round;stroke-linejoin:round;stroke-miterlimit:10;stroke-dasharray:none;stroke-opacity:1" transform="translate(369.974 16.253)" fill="none" stroke="#ffffff" stroke-width="15" stroke-linecap="round" stroke-linejoin="round" stroke-miterlimit="10" stroke-dasharray="none" stroke-opacity="" data-original="#000000" opacity="1" class=""></path><path d="M0 0h-64.016c-15.29 0-27.685 12.396-27.685 27.686 0 15.291 12.395 27.687 27.685 27.687H0c15.29 0 27.686-12.396 27.686-27.687C27.686 12.396 15.29 0 0 0Z" style="stroke-width:15;stroke-linecap:round;stroke-linejoin:round;stroke-miterlimit:10;stroke-dasharray:none;stroke-opacity:1" transform="translate(398.79 126.998)" fill="none" stroke="#ffffff" stroke-width="15" stroke-linecap="round" stroke-linejoin="round" stroke-miterlimit="10" stroke-dasharray="none" stroke-opacity="" data-original="#000000" opacity="1" class=""></path><path d="M0 0c.668-1.427 1.874-4.904 2.682-7.3 1.426-4.238 2.462-9.313 2.668-13.773.355-7.726-.881-16.687-5.247-26.393 0 0-8.11-18.344-30.53-28.293" style="stroke-width:15;stroke-linecap:round;stroke-linejoin:round;stroke-miterlimit:10;stroke-dasharray:none;stroke-opacity:1" transform="translate(262.749 247.653)" fill="none" stroke="#ffffff" stroke-width="15" stroke-linecap="round" stroke-linejoin="round" stroke-miterlimit="10" stroke-dasharray="none" stroke-opacity="" data-original="#000000" opacity="1" class=""></path></g></g></svg>