<svg xmlns="http://www.w3.org/2000/svg" xmlns:xlink="http://www.w3.org/1999/xlink" xmlns:svgjs="http://svgjs.com/svgjs" width="512" height="512" x="0" y="0" viewBox="0 0 682.667 682.667" style="enable-background:new 0 0 512 512" xml:space="preserve" class=""><g><defs><clipPath id="a" clipPathUnits="userSpaceOnUse"><path d="M0 512h512V0H0Z" fill="#4659e2" data-original="#000000" opacity="1"></path></clipPath></defs><g clip-path="url(#a)" transform="matrix(1.33333 0 0 -1.33333 0 682.667)"><path d="M0 0v6.155c0 8.088 7.912 13.808 15.592 11.271l.02-.007a87.903 87.903 0 0 1 55.163.004c7.68 2.538 15.593-3.181 15.593-11.27V0c0-6.209 5.034-11.243 11.243-11.243h11.165v35.284c0 8.924-7.234 16.157-16.158 16.157h-.544a5.458 5.458 0 0 0-5.457 5.457c0 8.924-7.234 16.158-16.158 16.158H14.778c-20.537 0-37.186-16.649-37.186-37.187v-35.869h11.165C-5.034-11.243 0-6.209 0 0Z" style="stroke-width:15;stroke-linecap:round;stroke-linejoin:round;stroke-miterlimit:10;stroke-dasharray:none;stroke-opacity:1" transform="translate(334.36 354.366)" fill="none" stroke="#4659e2" stroke-width="15" stroke-linecap="round" stroke-linejoin="round" stroke-miterlimit="10" stroke-dasharray="none" stroke-opacity="" data-original="#000000" opacity="1" class=""></path><path d="M0 0v0c1.481 0 2.688-1.161 2.781-2.641 1.794-28.438 25.413-50.951 54.304-50.951 28.892 0 52.511 22.513 54.305 50.951.092 1.48 1.298 2.641 2.781 2.641a8.507 8.507 0 0 1 8.507 8.507V26.892h-11.165c-6.209 0-11.243 5.034-11.243 11.243v6.153c0 8.089-7.914 13.808-15.593 11.27a87.903 87.903 0 0 0-55.163-.004l-.021.007c-7.68 2.537-15.592-3.183-15.592-11.271v-6.155c0-6.209-5.034-11.243-11.243-11.243H-8.507V8.507A8.507 8.507 0 0 1 0 0Z" style="stroke-width:15;stroke-linecap:round;stroke-linejoin:round;stroke-miterlimit:10;stroke-dasharray:none;stroke-opacity:1" transform="translate(320.458 316.231)" fill="none" stroke="#4659e2" stroke-width="15" stroke-linecap="round" stroke-linejoin="round" stroke-miterlimit="10" stroke-dasharray="none" stroke-opacity="" data-original="#000000" opacity="1" class=""></path><path d="M0 0h238.41c11.466 0 20.761 9.295 20.761 20.761v84.918H6.546" style="stroke-width:15;stroke-linecap:round;stroke-linejoin:round;stroke-miterlimit:10;stroke-dasharray:none;stroke-opacity:1" transform="translate(245.309 7.99)" fill="none" stroke="#4659e2" stroke-width="15" stroke-linecap="round" stroke-linejoin="round" stroke-miterlimit="10" stroke-dasharray="none" stroke-opacity="" data-original="#000000" opacity="1" class=""></path><path d="M0 0v0c-41.741 0-75.583-33.832-75.597-75.573v-.032a133.173 133.173 0 0 0-5.607-38.199 80.968 80.968 0 0 1-3.411-23.233 33.407 33.407 0 0 1 22.449-31.57 189.535 189.535 0 0 1 124.332 0 33.406 33.406 0 0 1 22.45 31.57 81.002 81.002 0 0 1-3.411 23.233 133.174 133.174 0 0 0-5.608 38.199v.032C75.584-33.832 41.742 0 0 0Z" style="stroke-width:15;stroke-linecap:round;stroke-linejoin:round;stroke-miterlimit:10;stroke-dasharray:none;stroke-opacity:1" transform="translate(130.935 342.648)" fill="none" stroke="#4659e2" stroke-width="15" stroke-linecap="round" stroke-linejoin="round" stroke-miterlimit="10" stroke-dasharray="none" stroke-opacity="" data-original="#000000" opacity="1" class=""></path><path d="M0 0v-41.83c0-12.15 9.851-22.001 22.001-22.001h153.747c.85 0 1.665-.338 2.267-.939l32.933-32.933c2.446-2.445 6.626-.713 6.626 2.745v28.485c0 1.491 1.022 2.812 2.48 3.119 9.96 2.102 17.436 10.939 17.436 21.524v83.014c0 12.15-9.85 22.001-22.001 22.001H22.001C9.851 63.185 0 53.334 0 41.184v-6.061" style="stroke-width:15;stroke-linecap:round;stroke-linejoin:round;stroke-miterlimit:10;stroke-dasharray:none;stroke-opacity:1" transform="translate(41.846 441.305)" fill="none" stroke="#4659e2" stroke-width="15" stroke-linecap="round" stroke-linejoin="round" stroke-miterlimit="10" stroke-dasharray="none" stroke-opacity="" data-original="#000000" opacity="1" class=""></path><path d="M0 0v81.688c0 5.072-.886 9.981-2.516 14.567a44.164 44.164 0 0 1-1.225 3.073c-5.073 11.432-14.963 20.437-27.526 24.124l-63.777 12.144c-10.28-25.563-46.473-25.551-56.736.018l-.068.166-63.753-12.329c-18.537-5.441-31.269-22.448-31.269-41.766V10.879c0-11.483 9.32-20.783 20.803-20.761l216.642.44c.123 0 .242.013.363.018C-4.023-9.222 0-5.085 0 0Z" style="stroke-width:15;stroke-linecap:round;stroke-linejoin:round;stroke-miterlimit:10;stroke-dasharray:none;stroke-opacity:1" transform="translate(254.37 17.413)" fill="none" stroke="#4659e2" stroke-width="15" stroke-linecap="round" stroke-linejoin="round" stroke-miterlimit="10" stroke-dasharray="none" stroke-opacity="" data-original="#000000" opacity="1" class=""></path><path d="M0 0v-12.512l.067-.166" style="stroke-width:15;stroke-linecap:round;stroke-linejoin:round;stroke-miterlimit:10;stroke-dasharray:none;stroke-opacity:1" transform="translate(102.522 165.705)" fill="none" stroke="#4659e2" stroke-width="15" stroke-linecap="round" stroke-linejoin="round" stroke-miterlimit="10" stroke-dasharray="none" stroke-opacity="" data-original="#000000" opacity="1" class=""></path><path d="M0 0v12.693" style="stroke-width:15;stroke-linecap:round;stroke-linejoin:round;stroke-miterlimit:10;stroke-dasharray:none;stroke-opacity:1" transform="translate(159.326 153.009)" fill="none" stroke="#4659e2" stroke-width="15" stroke-linecap="round" stroke-linejoin="round" stroke-miterlimit="10" stroke-dasharray="none" stroke-opacity="" data-original="#000000" opacity="1" class=""></path><path d="M0 0v5.773C0 25.638-13.092 43.125-32.151 48.72l-42.647 12.52" style="stroke-width:15;stroke-linecap:round;stroke-linejoin:round;stroke-miterlimit:10;stroke-dasharray:none;stroke-opacity:1" transform="translate(504.48 173.575)" fill="none" stroke="#4659e2" stroke-width="15" stroke-linecap="round" stroke-linejoin="round" stroke-miterlimit="10" stroke-dasharray="none" stroke-opacity="" data-original="#000000" opacity="1" class=""></path><path d="m0 0-42.896-12.59c-19.062-5.595-32.155-23.083-32.155-42.947v-62.606a43.49 43.49 0 0 0 1.226-3.073H178.8v24.847" style="stroke-width:15;stroke-linecap:round;stroke-linejoin:round;stroke-miterlimit:10;stroke-dasharray:none;stroke-opacity:1" transform="translate(325.68 234.884)" fill="none" stroke="#4659e2" stroke-width="15" stroke-linecap="round" stroke-linejoin="round" stroke-miterlimit="10" stroke-dasharray="none" stroke-opacity="" data-original="#000000" opacity="1" class=""></path><path d="m0 0-8.317-3.734c-4.748-2.132-5.895-8.357-2.217-12.039l23.035-23.071a7.956 7.956 0 0 1 10.65-.405l18.063 15.088L10.419-1.149A10.337 10.337 0 0 1 0 0Z" style="stroke-width:15;stroke-linecap:round;stroke-linejoin:round;stroke-miterlimit:10;stroke-dasharray:none;stroke-opacity:1" transform="translate(336.953 241.015)" fill="none" stroke="#4659e2" stroke-width="15" stroke-linecap="round" stroke-linejoin="round" stroke-miterlimit="10" stroke-dasharray="none" stroke-opacity="" data-original="#000000" opacity="1" class=""></path><path d="m0 0-29.531-22.867 16.977-14.516a7.956 7.956 0 0 1 10.682.31L21.175-14.63c3.766 3.668 2.64 9.981-2.162 12.12l-8.479 3.779A10.34 10.34 0 0 1 0 0Z" style="stroke-width:15;stroke-linecap:round;stroke-linejoin:round;stroke-miterlimit:10;stroke-dasharray:none;stroke-opacity:1" transform="translate(407.698 239.72)" fill="none" stroke="#4659e2" stroke-width="15" stroke-linecap="round" stroke-linejoin="round" stroke-miterlimit="10" stroke-dasharray="none" stroke-opacity="" data-original="#000000" opacity="1" class=""></path><path d="m0 0 10.783-18.519h21.156L42.601.588" style="stroke-width:15;stroke-linecap:round;stroke-linejoin:round;stroke-miterlimit:10;stroke-dasharray:none;stroke-opacity:1" transform="translate(356.163 200.001)" fill="none" stroke="#4659e2" stroke-width="15" stroke-linecap="round" stroke-linejoin="round" stroke-miterlimit="10" stroke-dasharray="none" stroke-opacity="" data-original="#000000" opacity="1" class=""></path><path d="m0 0-15.209-67.814" style="stroke-width:15;stroke-linecap:round;stroke-linejoin:round;stroke-miterlimit:10;stroke-dasharray:none;stroke-opacity:1" transform="translate(366.946 181.482)" fill="none" stroke="#4659e2" stroke-width="15" stroke-linecap="round" stroke-linejoin="round" stroke-miterlimit="10" stroke-dasharray="none" stroke-opacity="" data-original="#000000" opacity="1" class=""></path><path d="m0 0-15.209 67.814" style="stroke-width:15;stroke-linecap:round;stroke-linejoin:round;stroke-miterlimit:10;stroke-dasharray:none;stroke-opacity:1" transform="translate(403.312 113.668)" fill="none" stroke="#4659e2" stroke-width="15" stroke-linecap="round" stroke-linejoin="round" stroke-miterlimit="10" stroke-dasharray="none" stroke-opacity="" data-original="#000000" opacity="1" class=""></path><path d="M0 0v-31.992" style="stroke-width:15;stroke-linecap:round;stroke-linejoin:round;stroke-miterlimit:10;stroke-dasharray:none;stroke-opacity:1" transform="translate(348.339 271.135)" fill="none" stroke="#4659e2" stroke-width="15" stroke-linecap="round" stroke-linejoin="round" stroke-miterlimit="10" stroke-dasharray="none" stroke-opacity="" data-original="#000000" opacity="1" class=""></path><path d="M0 0v32.149" style="stroke-width:15;stroke-linecap:round;stroke-linejoin:round;stroke-miterlimit:10;stroke-dasharray:none;stroke-opacity:1" transform="translate(406.748 238.984)" fill="none" stroke="#4659e2" stroke-width="15" stroke-linecap="round" stroke-linejoin="round" stroke-miterlimit="10" stroke-dasharray="none" stroke-opacity="" data-original="#000000" opacity="1" class=""></path></g></g></svg>