<svg xmlns="http://www.w3.org/2000/svg" xmlns:xlink="http://www.w3.org/1999/xlink" xmlns:svgjs="http://svgjs.com/svgjs" width="512" height="512" x="0" y="0" viewBox="0 0 511.997 511.997" style="enable-background:new 0 0 512 512" xml:space="preserve" class=""><g><path d="M487.343 349.221h-43.038c40.247-21.517 67.692-63.966 67.692-112.704 0-66.188-50.48-120.997-115.573-127.135-4.101-.386-7.781 2.639-8.171 6.763a7.5 7.5 0 0 0 6.763 8.171c57.331 5.406 101.981 53.691 101.981 112.202 0 62.145-50.559 112.704-112.704 112.704s-112.704-50.559-112.704-112.704c0-55.553 40.324-101.991 93.578-111.089a7.5 7.5 0 0 0-2.525-14.786c-43.339 7.405-81.367 37.34-97.761 80.612a298.748 298.748 0 0 1-2.906-2.398c-8.165-6.791-20.402-16.967-36.349-21.796a26.226 26.226 0 0 0 4.101-14.114v-9.314c0-9.05-4.581-17.05-11.546-21.804 23.71-60.508 22.541-57.072 22.789-58.402 1.607-8.594-4.691-16.588-13.33-17.133l-22.916-4.855c.305-7.078 3.838-14.003-1.995-21.025-7.66-9.221-26.021-9.938-31.466-9.938-10.047 0-25.052 2.174-31.538 9.984-5.8 6.985-2.293 13.708-1.965 21.171l-22.905 4.66c-10.159.615-15.827 11.218-12.976 18.5l22.398 57.039c-6.965 4.754-11.546 12.754-11.546 21.803v9.314c0 5.125 1.469 9.913 4.008 13.965-29.807 8.714-87.868 61.366-100.274 117.898a7.5 7.5 0 0 0 5.719 8.933c4.028.883 8.041-1.654 8.933-5.718 6.102-27.802 24.057-55.763 53.367-83.109 10.876-8.164 22.429-20.811 40.094-24.523-6.723 5.857-13.956 13.815-20.936 24.607a7.501 7.501 0 0 0 12.596 8.147c10.068-15.566 20.419-23.97 27.328-28.278 6.132-3.823 10.709-5.184 12.103-5.54h31.106c1.469.374 6.025 1.742 12.117 5.54 6.91 4.308 17.26 12.711 27.328 28.277a7.5 7.5 0 0 0 12.596-8.147c-6.912-10.686-14.071-18.594-20.738-24.434 18.346 4.274 31.965 18.478 39.991 24.393a207.8 207.8 0 0 1 2.022 1.867 127.71 127.71 0 0 0-3.503 29.693c0 48.739 27.445 91.187 67.692 112.704h-43.039c-13.594 0-24.653 11.06-24.653 24.654 0 6.664 2.658 12.719 6.97 17.161-4.311 4.442-6.97 10.497-6.97 17.161 0 6.665 2.658 12.72 6.97 17.162-4.319 4.443-6.982 10.503-6.982 17.174 0 2.628.414 5.161 1.179 7.538H69.978c-33.717 0-59.464-30.091-54.316-63.364l10.431-67.438a7.501 7.501 0 0 0-6.266-8.559 7.495 7.495 0 0 0-8.559 6.266L.837 384.414c-6.561 42.413 26.282 80.657 69.141 80.657h189.61a24.502 24.502 0 0 0-3.011 11.798c0 13.594 11.06 24.654 24.654 24.654h206.1c13.595 0 24.654-11.06 24.654-24.654 0-6.668-2.661-12.726-6.976-17.168 4.315-4.442 6.976-10.5 6.976-17.168 0-6.665-2.658-12.72-6.97-17.162 4.319-4.443 6.982-10.503 6.982-17.174 0-6.664-2.658-12.719-6.97-17.161 4.312-4.442 6.97-10.497 6.97-17.161 0-13.594-11.059-24.654-24.654-24.654zM139.114 164.327c-6.276 0-11.382-5.105-11.382-11.381v-9.314c0-6.294 5.126-11.381 11.382-11.381h64.231c6.247 0 11.381 5.08 11.381 11.381v9.314c0 6.276-5.105 11.381-11.381 11.381h-64.231zm86.048-103.228c.233.05.469.088.705.115l-22.007 56.042a29.379 29.379 0 0 0-.515-.005h-8.09l7.603-60.876zm-53.899-35.625c9.982 0 18.121 2.508 19.798 4.357-.012.075-.022.15-.032.225l-10.89 87.194H162.32l-10.889-87.194-.026-.188c1.566-1.647 9.176-4.394 19.858-4.394zm-54.671 35.74c.217-.024.432-.059.646-.102l22.387-4.555 7.579 60.693h-8.089c-.172 0-.344.002-.516.005zm370.751 356.637c-.217 0-.432.01-.645.028h-126.71c-4.143 0-7.5 3.358-7.5 7.5s3.357 7.5 7.5 7.5h127.343c5.323 0 9.654 4.331 9.654 9.654s-4.331 9.654-9.654 9.654h-206.1c-5.323 0-9.654-4.331-9.654-9.654s4.331-9.654 9.654-9.654h46.07c4.143 0 7.5-3.358 7.5-7.5s-3.357-7.5-7.5-7.5h-45.415a7.637 7.637 0 0 0-.645-.028c-5.323 0-9.653-4.331-9.653-9.654s4.33-9.654 9.653-9.654h206.101c5.323 0 9.654 4.331 9.654 9.654s-4.33 9.654-9.653 9.654zm-206.101-53.63h206.101c5.323 0 9.654 4.331 9.654 9.654s-4.331 9.654-9.654 9.654H281.242c-5.323 0-9.653-4.331-9.653-9.654s4.33-9.654 9.653-9.654zm206.089 122.302h-206.1c-5.323 0-9.654-4.331-9.654-9.654s4.331-9.654 9.654-9.654h206.1c5.323 0 9.654 4.331 9.654 9.654s-4.331 9.654-9.654 9.654z" fill="#4659e2" data-original="#000000" opacity="1"></path><path d="M348.152 214.047c0 16.525 13.444 29.97 29.97 29.97h12.343c8.254 0 14.97 6.715 14.97 14.97 0 8.254-6.716 14.97-14.97 14.97h-13.921c-5.696 0-10.624-3.666-12.261-9.123a7.498 7.498 0 0 0-9.339-5.028 7.499 7.499 0 0 0-5.028 9.339c3.555 11.85 14.256 19.812 26.628 19.812h.25v16.195c0 4.142 3.357 7.5 7.5 7.5s7.5-3.358 7.5-7.5v-16.225c15.911-.698 28.641-13.86 28.641-29.94 0-16.525-13.444-29.97-29.97-29.97h-12.343c-8.254 0-14.97-6.715-14.97-14.97s6.716-14.97 14.97-14.97h11.027c5.697 0 10.625 3.666 12.262 9.123a7.499 7.499 0 0 0 9.339 5.028 7.499 7.499 0 0 0 5.028-9.339c-3.3-10.997-12.753-18.646-23.984-19.69v-16.317c0-4.142-3.357-7.5-7.5-7.5s-7.5 3.358-7.5 7.5v16.224c-15.912.698-28.642 13.86-28.642 29.941zM171.23 238.565a7.5 7.5 0 0 0-7.5 7.5v16.224c-15.911.698-28.641 13.86-28.641 29.94 0 16.525 13.444 29.97 29.97 29.97h12.343c8.254 0 14.97 6.716 14.97 14.97s-6.716 14.97-14.97 14.97h-13.921c-5.697 0-10.625-3.666-12.262-9.123a7.5 7.5 0 0 0-9.339-5.028 7.498 7.498 0 0 0-5.028 9.339c3.556 11.851 14.257 19.813 26.629 19.813h.249v16.194c0 4.142 3.357 7.5 7.5 7.5s7.5-3.358 7.5-7.5V367.11c15.912-.697 28.642-13.86 28.642-29.94 0-16.525-13.444-29.97-29.97-29.97h-12.343c-8.254 0-14.97-6.715-14.97-14.97s6.716-14.97 14.97-14.97h11.027c5.696 0 10.624 3.666 12.261 9.123a7.498 7.498 0 0 0 9.339 5.028 7.5 7.5 0 0 0 5.028-9.339c-3.299-10.998-12.752-18.646-23.984-19.69v-16.317a7.5 7.5 0 0 0-7.5-7.5z" fill="#4659e2" data-original="#000000" opacity="1"></path></g></svg>