<svg xmlns="http://www.w3.org/2000/svg" xmlns:xlink="http://www.w3.org/1999/xlink" xmlns:svgjs="http://svgjs.com/svgjs" width="512" height="512" x="0" y="0" viewBox="0 0 512 512" style="enable-background:new 0 0 512 512" xml:space="preserve" class=""><g><path d="M358.456 74V37.5c0-16.569-13.431-30-30-30H64.723c-16.569 0-30 13.431-30 30v395.251c0 16.568 13.431 30 30 30h212.5V167.732c0-16.569 13.431-30 30-30h51.234V109" style="stroke-width:15;stroke-linecap:round;stroke-linejoin:round;stroke-miterlimit:10;" fill="none" stroke="#ffffff" stroke-width="15" stroke-linecap="round" stroke-linejoin="round" stroke-miterlimit="10" data-original="#000000" opacity="1" class=""></path><path d="M110.957 418.294H84.48a5 5 0 0 1-5-5v-26.477a5 5 0 0 1 5-5h26.477a5 5 0 0 1 5 5v26.477a5 5 0 0 1-5 5zM176.871 418.294h-26.477a5 5 0 0 1-5-5v-26.477a5 5 0 0 1 5-5h26.477a5 5 0 0 1 5 5v26.477a5 5 0 0 1-5 5zM242.785 418.294h-26.477a5 5 0 0 1-5-5v-26.477a5 5 0 0 1 5-5h26.477a5 5 0 0 1 5 5v26.477a5 5 0 0 1-5 5zM313.699 103.68H79.48V79.482c0-5.523 4.477-10 10-10H303.7c5.523 0 10 4.477 10 10v24.198zM277.222 167.732c0-16.569 13.431-30 30-30h6.477V103.68H79.48v114.25c0 5.523 4.477 10 10 10H277.222v-60.198zM214 133.68h69.699M214 165.805h61M214 197.93h29" style="stroke-width:15;stroke-linecap:round;stroke-linejoin:round;stroke-miterlimit:10;" fill="none" stroke="#ffffff" stroke-width="15" stroke-linecap="round" stroke-linejoin="round" stroke-miterlimit="10" data-original="#000000" opacity="1" class=""></path><path d="M109.479 192.93v-54.25a5 5 0 0 1 5-5H182a5 5 0 0 1 5 5v54.25a5 5 0 0 1-5 5h-67.521a5 5 0 0 1-5-5zM79.48 270.987v55.234c0 5.523 4.477 10 10 10h81.033c5.523 0 10-4.477 10-10v-55.234c0-5.523-4.477-10-10-10H89.48c-5.523 0-10 4.477-10 10z" style="stroke-width:15;stroke-linecap:round;stroke-linejoin:round;stroke-miterlimit:10;" fill="none" stroke="#ffffff" stroke-width="15" stroke-linecap="round" stroke-linejoin="round" stroke-miterlimit="10" data-original="#000000" opacity="1" class=""></path><path d="M137.162 336.221h33.351c5.523 0 10-4.477 10-10v-34.005c-23.162 2.148-41.538 20.748-43.351 44.005zM277.222 260.987h-54.556c-5.523 0-10 4.477-10 10v55.234c0 5.523 4.477 10 10 10h54.556v-75.234zM137.665 7.5l8.832 23.869a7.088 7.088 0 0 0 6.648 4.629h86.889a7.088 7.088 0 0 0 6.648-4.629L255.514 7.5H137.665zM102 287h27M102 308.5h11M477.277 381V167.732c0-16.569-13.432-30-30-30H307.222c-16.569 0-30 13.431-30 30V474.5c0 16.568 13.431 30 30 30h140.055c16.568 0 30-13.432 30-30V416" style="stroke-width:15;stroke-linecap:round;stroke-linejoin:round;stroke-miterlimit:10;" fill="none" stroke="#ffffff" stroke-width="15" stroke-linecap="round" stroke-linejoin="round" stroke-miterlimit="10" data-original="#000000" opacity="1" class=""></path><path d="M348.752 137.732c0 15.739 12.759 28.498 28.498 28.498s28.498-12.759 28.498-28.498h-56.996zM334.83 358.565h-23.565a3 3 0 0 1-3-3V332a3 3 0 0 1 3-3h23.565a3 3 0 0 1 3 3v23.565a3 3 0 0 1-3 3zM389.032 358.565h-23.565a3 3 0 0 1-3-3V332a3 3 0 0 1 3-3h23.565a3 3 0 0 1 3 3v23.565a3 3 0 0 1-3 3zM443.234 358.565H419.67a3 3 0 0 1-3-3V332a3 3 0 0 1 3-3h23.565a3 3 0 0 1 3 3v23.565a3.001 3.001 0 0 1-3.001 3zM334.83 414.738h-23.565a3 3 0 0 1-3-3v-23.565a3 3 0 0 1 3-3h23.565a3 3 0 0 1 3 3v23.565a3 3 0 0 1-3 3zM389.032 414.738h-23.565a3 3 0 0 1-3-3v-23.565a3 3 0 0 1 3-3h23.565a3 3 0 0 1 3 3v23.565a3 3 0 0 1-3 3zM443.234 414.738H419.67a3 3 0 0 1-3-3v-23.565a3 3 0 0 1 3-3h23.565a3 3 0 0 1 3 3v23.565a3.001 3.001 0 0 1-3.001 3zM436.234 211.748H318.265c-5.523 0-10 4.477-10 10v21.972c0 5.523 4.477 10 10 10h117.969c5.523 0 10-4.477 10-10v-21.972c0-5.523-4.477-10-10-10zM352.292 459.085h0M377.25 459.085h0M402.207 459.085h0M388.212 28.018c41.484 0 75.234 33.75 75.234 75.234M388.212 61.016c23.327 0 42.237 18.91 42.237 42.237" style="stroke-width:15;stroke-linecap:round;stroke-linejoin:round;stroke-miterlimit:10;" fill="none" stroke="#ffffff" stroke-width="15" stroke-linecap="round" stroke-linejoin="round" stroke-miterlimit="10" data-original="#000000" opacity="1" class=""></path></g></svg>