<svg xmlns="http://www.w3.org/2000/svg" xmlns:xlink="http://www.w3.org/1999/xlink" xmlns:svgjs="http://svgjs.com/svgjs" width="512" height="512" x="0" y="0" viewBox="0 0 512 512" style="enable-background:new 0 0 512 512" xml:space="preserve" class=""><g><path d="M481.882 338.557h-19.854c-.451-6.612-4.397-12.229-10.045-15.043V155.169c0-50.136-40.789-90.925-90.926-90.925-50.139 0-90.927 40.789-90.927 90.925v259.628c0 41.244-33.552 74.796-74.796 74.796-41.245 0-74.799-33.552-74.799-74.796v-63.063c13.799-2.73 24.275-14.735 24.697-29.223h1.021c12.13 0 22-9.868 22-22 0-3.222-.735-6.261-1.986-9.021 6.46-3.838 10.845-10.813 10.845-18.857 0-4.016-1.159-7.735-3.047-10.979 4.894-4.036 8.08-10.07 8.08-16.896 0-6.531-2.915-12.339-7.444-16.371v-1.489c0-34.091 10.079-45.166 20.747-56.888 11.018-12.104 23.499-25.82 23.499-61.574 0-56.329-47.766-102.158-106.476-102.158S5.998 52.106 5.998 108.436c0 35.754 12.481 49.471 23.498 61.574 10.669 11.722 20.748 22.797 20.748 56.888v1.489c-4.529 4.032-7.446 9.84-7.446 16.371 0 6.825 3.188 12.859 8.081 16.896-1.886 3.244-3.047 6.964-3.047 10.979 0 8.045 4.38 15.02 10.842 18.857-1.252 2.756-1.986 5.799-1.986 9.021 0 12.132 9.87 22 22.003 22h1.021c.423 14.487 10.899 26.492 24.697 29.223v63.063c0 50.137 40.79 90.926 90.927 90.926 50.136 0 90.925-40.789 90.925-90.926V155.169c0-41.245 33.555-74.8 74.798-74.8 41.242 0 74.797 33.555 74.797 74.8v168.345c-5.648 2.814-9.595 8.431-10.045 15.043h-19.854c-13.298 0-24.119 10.817-24.119 24.115v80.971c0 34.228 27.854 62.08 62.082 62.08s62.083-27.853 62.083-62.08v-80.971c-.001-13.298-10.823-24.115-24.121-24.115zm-412.048-60.05a5.877 5.877 0 0 1-5.872-5.874 5.877 5.877 0 0 1 5.872-5.873h85.278a5.877 5.877 0 0 1 5.872 5.873 5.876 5.876 0 0 1-5.872 5.874H78.69zm-5.033-27.878a5.877 5.877 0 0 1-5.874-5.871 5.878 5.878 0 0 1 5.874-5.873h95.345a5.877 5.877 0 0 1 5.872 5.873 5.876 5.876 0 0 1-5.872 5.871H69.834zm39.603-91.461c-6.768-.795-12.835-2.616-16.374-5.473-2.175-1.751-2.954-3.293-1.17-6.861 1.485-2.962 5.55-4.931 9.713-4.931.783 0 1.572.068 2.347.217 5.029.948 5.334 4.274 5.432 5.37l.036.342c-.004.417 0 .837.017 1.263v10.073zm-62.979-.014c-10.357-11.379-19.299-21.203-19.299-50.719 0-47.438 40.529-86.027 90.347-86.027s90.348 38.59 90.348 86.027c0 29.516-8.942 39.34-19.3 50.719-11.275 12.389-23.968 26.452-24.86 63.6h-38.127l-.005-47.336c10.429-1.036 20.165-4.089 26.467-9.164 8.387-6.762 10.435-16.717 5.479-26.631-5.286-10.579-18.666-16.176-31.119-12.986-3.438.873-6.437 2.347-8.923 4.303-2.883-2.286-6.445-3.896-10.521-4.668-10.332-1.946-23.799 2.004-29.472 13.352-4.964 9.918-2.916 19.873 5.476 26.635 6.305 5.081 16.047 8.137 26.49 9.162v47.334h-38.12c-.894-37.149-13.586-51.212-24.861-63.601zm79.103.008v-10.356c-.087-2.453.383-5.413 4.809-6.541a11.92 11.92 0 0 1 2.908-.344c3.889 0 8.183 1.676 9.803 4.913 1.78 3.564 1.001 5.105-1.173 6.857-3.536 2.851-9.591 4.674-16.347 5.471zM72.816 300.511a5.88 5.88 0 0 1 5.874-5.876h67.564a5.88 5.88 0 0 1 5.871 5.876 5.875 5.875 0 0 1-5.871 5.871H78.69a5.875 5.875 0 0 1-5.874-5.871zm23.07 22h33.174c-.475 7.618-6.764 13.692-14.499 13.692h-4.176c-7.737 0-14.025-6.074-14.499-13.692zm345.93 43.969v-26.7c0-1.14.962-2.104 2.103-2.104s2.104.965 2.104 2.104v26.7c0 1.14-.963 2.105-2.104 2.105s-2.103-.965-2.103-2.105zm48.057 77.163c0 25.336-20.616 45.95-45.954 45.95-25.337 0-45.953-20.614-45.953-45.95v-80.971c0-4.403 3.586-7.986 7.99-7.986h19.731v11.795c0 7.146 4.165 13.279 10.167 16.267v25.235a8.062 8.062 0 0 0 8.064 8.064 8.062 8.062 0 0 0 8.064-8.064v-25.235c6.001-2.987 10.168-9.121 10.168-16.267v-11.795h19.73c4.406 0 7.991 3.583 7.991 7.986v80.971z" fill="#012068" data-original="#000000" opacity="1"></path></g></svg>