<svg xmlns="http://www.w3.org/2000/svg" xmlns:xlink="http://www.w3.org/1999/xlink" xmlns:svgjs="http://svgjs.com/svgjs" width="512" height="512" x="0" y="0" viewBox="0 0 64 64" style="enable-background:new 0 0 512 512" xml:space="preserve" class=""><g><g data-name="05 E-Wallet"><path d="M25 6h-1a1 1 0 0 0 0 2h1a1 1 0 0 0 0-2zM20 6h-5a1 1 0 0 0 0 2h5a1 1 0 0 0 0-2zM20 58a3 3 0 1 0-3-3 3 3 0 0 0 3 3zm0-4a1 1 0 1 1-1 1 1 1 0 0 1 1-1zM26 56h2a1 1 0 0 0 0-2h-2a1 1 0 0 0 0 2zM12 56h2a1 1 0 0 0 0-2h-2a1 1 0 0 0 0 2zM45 31a3 3 0 1 0 3 3 3 3 0 0 0-3-3zm0 4a1 1 0 1 1 1-1 1 1 0 0 1-1 1z" fill="#4659e2" data-original="#000000" opacity="1" class=""></path><path d="M59 13a10 10 0 1 0-19.159 4H35V8a5.006 5.006 0 0 0-5-5H10a5.006 5.006 0 0 0-5 5v48a5.006 5.006 0 0 0 5 5h20a5.006 5.006 0 0 0 5-5v-9h14a2 2 0 0 0 2-2v-4a2 2 0 0 0 2-2V29a2 2 0 0 0-2-2v-4a1.844 1.844 0 0 0-.02-.2A10.018 10.018 0 0 0 59 13zm-16 8H18a.978.978 0 0 1-.383-.078 1.02 1.02 0 0 1-.33-.228.928.928 0 0 1-.209-.31.981.981 0 0 1 .229-1.1A.952.952 0 0 1 18 19h23a11.635 11.635 0 0 0 2 2zM7 8a3 3 0 0 1 3-3h20a3 3 0 0 1 3 3v1H7zm26 48a3 3 0 0 1-3 3H10a3 3 0 0 1-3-3v-5h26zm0-7H7V11h26v6H18a3.017 3.017 0 0 0-3 3v24a3 3 0 0 0 3 3h15zm18-10H37V29h14zm-2-12H37a2 2 0 0 0-2 2v10a2 2 0 0 0 2 2h12v4H18a1 1 0 0 1-1-1V22.831c.092.032.19.05.286.074.049.012.1.028.146.038A3.047 3.047 0 0 0 18 23h31zm0-6a8 8 0 1 1 8-8 8.017 8.017 0 0 1-8 8z" fill="#4659e2" data-original="#000000" opacity="1" class=""></path><path d="M50 12h-2a1 1 0 0 1 0-2h3a1 1 0 0 0 0-2h-1a1 1 0 0 0-2 0 3 3 0 0 0 0 6h2a1 1 0 0 1 0 2h-3a1 1 0 0 0 0 2h1a1 1 0 0 0 2 0 3 3 0 0 0 0-6z" fill="#4659e2" data-original="#000000" opacity="1" class=""></path></g></g></svg>