<svg xmlns="http://www.w3.org/2000/svg" xmlns:xlink="http://www.w3.org/1999/xlink" xmlns:svgjs="http://svgjs.com/svgjs" width="512" height="512" x="0" y="0" viewBox="0 0 512 512" style="enable-background:new 0 0 512 512" xml:space="preserve" class=""><g><path d="M137.926 280.722c-1.084 0-2.169-.018-3.255-.045 2.421 3.096 2.257 7.576-.554 10.479a7.975 7.975 0 0 1-5.748 2.436 7.966 7.966 0 0 1-5.563-2.253l-16.156-15.644a7.999 7.999 0 0 1 1.318-12.527l19.06-11.936a8 8 0 0 1 11.026 2.534c2.308 3.686 1.239 8.519-2.363 10.907.745.015 1.491.048 2.235.048 62.818 0 113.925-51.106 113.925-113.925 0-40.676-21.933-78.551-57.238-98.844a8 8 0 0 1-2.949-10.923c2.201-3.829 7.092-5.153 10.922-2.949 40.258 23.139 65.266 66.33 65.266 112.716-.001 71.642-58.286 129.926-129.926 129.926zm-56.688-31.081C45.933 229.349 24 191.474 24 150.796 24 87.978 75.106 36.872 137.926 36.872c.755 0 1.51.01 2.265.025-3.628 2.381-4.708 7.233-2.394 10.928a7.994 7.994 0 0 0 11.026 2.534l19.06-11.936c2.084-1.306 3.452-3.497 3.71-5.943s-.624-4.874-2.392-6.585l-16.156-15.643a8 8 0 0 0-11.312.183c-2.811 2.904-2.975 7.384-.554 10.48a130.763 130.763 0 0 0-3.254-.044C66.284 20.872 8 79.156 8 150.796c0 46.388 25.009 89.578 65.266 112.716a7.993 7.993 0 0 0 10.922-2.95 7.998 7.998 0 0 0-2.95-10.921zM504 291.793v54.82c0 11.186-4.502 20.903-13.697 29.451v97.448c0 16.812-13.677 30.488-30.487 30.488H224.9c-16.811 0-30.487-13.677-30.487-30.488v-97.448c-9.194-8.547-13.695-18.265-13.695-29.451v-54.82c0-10.765 8.758-19.522 19.522-19.522h74.133v-16.066c0-17.681 14.385-32.065 32.065-32.065h71.844c17.68 0 32.063 14.384 32.063 32.065v16.066h74.131c10.766 0 19.524 8.757 19.524 19.522zm-233.872 25.946a6.454 6.454 0 0 0 6.446 6.447h131.568a6.455 6.455 0 0 0 6.447-6.447V288.27H270.128zm102.914-56.296h-61.365v10.827h61.365zm-82.669 10.828h5.304v-16.066c0-5.934 4.828-10.761 10.762-10.761h71.844c5.933 0 10.76 4.827 10.76 10.761v16.066h5.304v-16.066c0-8.858-7.206-16.065-16.063-16.065H306.44c-8.858 0-16.065 7.207-16.065 16.065v16.066zm-93.655 74.342c0 9.098 5.394 16.747 16.974 24.072 15.829 10.015 50.918 17.357 94.611 19.901 5.137-13.826 18.463-23.705 34.056-23.705 15.586 0 28.906 9.87 34.049 23.686 43.751-2.568 78.845-9.903 94.617-19.882C482.606 363.359 488 355.711 488 346.613v-54.82a3.527 3.527 0 0 0-3.523-3.522H430.59v29.469c0 12.378-10.069 22.447-22.447 22.447H276.574c-12.377 0-22.446-10.069-22.446-22.447v-29.469H200.24a3.526 3.526 0 0 0-3.522 3.522zm145.64 36.269c-11.203 0-20.318 9.115-20.318 20.318s9.115 20.318 20.318 20.318 20.318-9.115 20.318-20.318-9.114-20.318-20.318-20.318zm131.945 90.63v-86.335c-19.391 9.842-53.495 16.727-95.78 19.294-1.66 18.499-17.241 33.048-36.164 33.048-18.917 0-34.494-14.539-36.163-33.028-42.245-2.546-76.35-9.437-95.783-19.311v86.333c0 7.989 6.499 14.488 14.487 14.488h234.915c7.989-.001 14.488-6.5 14.488-14.489zM137.926 54.891c52.882 0 95.905 43.023 95.905 95.905 0 52.883-43.023 95.906-95.905 95.906s-95.905-43.023-95.905-95.906c0-52.882 43.023-95.905 95.905-95.905zm0 16c-44.06 0-79.905 35.845-79.905 79.905s35.846 79.906 79.905 79.906 79.905-35.846 79.905-79.906-35.846-79.905-79.905-79.905zm0 29.272a8 8 0 0 0-8 8v34.633h-18.114a8 8 0 0 0 0 16h26.114a8 8 0 0 0 8-8v-42.633a8 8 0 0 0-8-8zm-8-19.356v7.586a8 8 0 0 0 16 0v-7.586a8 8 0 0 0-16 0zm-41.783 31.521a7.974 7.974 0 0 0 5.657 2.343 7.972 7.972 0 0 0 5.656-2.343 8 8 0 0 0 .001-11.314l-5.364-5.365a8 8 0 0 0-11.314 11.314zm0 76.937-5.364 5.364a8 8 0 1 0 11.314 11.313l5.364-5.364a8 8 0 1 0-11.314-11.313zm93.615 16.677c1.562 1.562 3.609 2.343 5.657 2.343s4.095-.781 5.657-2.343a8 8 0 0 0 0-11.313l-5.364-5.364a8 8 0 0 0-11.314 11.313zm.293-91.271a7.974 7.974 0 0 0 5.657-2.343l5.364-5.365a8 8 0 0 0-.001-11.314 8 8 0 0 0-11.313 0l-5.364 5.365a8 8 0 0 0 .001 11.314 7.97 7.97 0 0 0 5.656 2.343zm-98.528 36.125a8 8 0 0 0-8-8h-7.587a8 8 0 0 0 0 16h7.587a8 8 0 0 0 8-8zm54.403 54.403a8 8 0 0 0-8 8v7.586a8 8 0 0 0 16 0v-7.586a8 8 0 0 0-8-8zm54.402-54.403a8 8 0 0 0 8 8h7.587a8 8 0 0 0 0-16h-7.587a8 8 0 0 0-8 8z" fill="#ffffff" data-original="#000000" opacity="1"></path></g></svg>