<svg xmlns="http://www.w3.org/2000/svg" xmlns:xlink="http://www.w3.org/1999/xlink" xmlns:svgjs="http://svgjs.com/svgjs" width="512" height="512" x="0" y="0" viewBox="0 0 512 512" style="enable-background:new 0 0 512 512" xml:space="preserve" class=""><g><path d="M419.064 413.936c-21.597 23.395-47.218 41.821-76.154 54.766-29.946 13.397-61.906 20.19-94.99 20.19-62.207 0-120.692-24.225-164.679-68.212C39.254 376.692 15.029 318.207 15.029 256S39.254 135.308 83.242 91.32c43.987-43.987 102.472-68.212 164.679-68.212 43.727 0 86.34 12.186 123.232 35.239a7.515 7.515 0 0 0 7.965-12.745C339.835 21.054 294.467 8.079 247.921 8.079c-66.222 0-128.48 25.788-175.306 72.614C25.789 127.52 0 189.778 0 256s25.789 128.48 72.614 175.307c46.826 46.826 109.084 72.614 175.306 72.614 35.213 0 69.238-7.234 101.128-21.5 30.802-13.78 58.074-33.392 81.059-58.29a7.515 7.515 0 0 0-.425-10.619 7.511 7.511 0 0 0-10.618.424z" fill="#012068" data-original="#000000" opacity="1" class=""></path><path d="M511.382 229.421a7.515 7.515 0 0 0-6.897-4.531h-10.586c-3.84-30.749-13.3-60.111-28.161-87.377-15.526-28.485-36.186-53.34-61.406-73.873a7.514 7.514 0 1 0-9.489 11.655c23.7 19.295 43.112 42.648 57.699 69.41 14.978 27.482 24.114 57.233 27.154 88.428a7.514 7.514 0 0 0 7.418 6.786l-23.954 25.492-23.955-25.492h5.112c4.373.099 8.077-4.072 7.462-8.402-12.257-103.092-99.897-180.833-203.858-180.833-113.212 0-205.316 92.104-205.316 205.316 0 38.216 10.573 75.511 30.576 107.853a7.511 7.511 0 0 0 10.344 2.438 7.515 7.515 0 0 0 2.438-10.344C67.43 325.982 57.634 291.421 57.634 256c0-104.925 85.362-190.287 190.287-190.287 93.506 0 172.764 67.852 187.746 159.177h-13.836c-6.385-.212-10.002 8.153-5.477 12.66l41.328 43.981c2.819 3.131 8.134 3.131 10.953 0l41.327-43.981a7.516 7.516 0 0 0 1.42-8.129zM479.804 312.093h-44.533a7.516 7.516 0 0 0-7.116 5.099c-26.206 77.215-98.637 129.094-180.234 129.094-55.874 0-108.71-24.425-144.962-67.012a7.515 7.515 0 0 0-11.444 9.742c39.113 45.948 96.12 72.3 156.406 72.3 86.228 0 162.972-53.705 192.66-134.194h29.158c-7.332 22.91-18.154 44.455-32.247 64.169a7.514 7.514 0 0 0 1.744 10.483 7.513 7.513 0 0 0 10.483-1.744c17.06-23.864 29.62-50.255 37.334-78.44a7.515 7.515 0 0 0-7.249-9.497z" fill="#012068" data-original="#000000" opacity="1" class=""></path><path d="M105.606 313.043c.88.336 1.784.494 2.673.494a7.517 7.517 0 0 0 7.023-4.842l7.181-18.855h47.848l7.108 18.834a7.515 7.515 0 1 0 14.061-5.306l-35.907-95.146a9.668 9.668 0 0 0-9.053-6.217h-.008a9.668 9.668 0 0 0-8.972 6.028c-.023.057-.046.114-.067.171l-36.236 95.142a7.514 7.514 0 0 0 4.349 9.697zm40.911-86.305 18.143 48.073h-36.452zM364.291 217.476a7.515 7.515 0 1 0 0-15.03H324a7.515 7.515 0 0 0-7.515 7.515v95.619a7.515 7.515 0 0 0 7.515 7.515h40.291a7.515 7.515 0 1 0 0-15.03h-32.776v-32.78h29.805a7.515 7.515 0 1 0 0-15.03h-29.805v-32.78h32.776zM252.099 217.035c8.163 0 16.037 2.404 22.771 6.953a7.515 7.515 0 1 0 8.413-12.454c-9.228-6.233-20.011-9.528-31.184-9.528-30.749 0-55.765 25.016-55.765 55.765s25.016 55.765 55.765 55.765c28.948 0 49.166-22.931 49.166-55.765a7.515 7.515 0 0 0-7.515-7.515h-28.868a7.515 7.515 0 1 0 0 15.03h20.937c-2.809 24.354-19.363 33.221-33.721 33.221-22.462 0-40.736-18.274-40.736-40.736.001-22.462 18.275-40.736 40.737-40.736z" fill="#012068" data-original="#000000" opacity="1" class=""></path></g></svg>