<svg xmlns="http://www.w3.org/2000/svg" xmlns:xlink="http://www.w3.org/1999/xlink" xmlns:svgjs="http://svgjs.com/svgjs" width="512" height="512" x="0" y="0" viewBox="0 0 128 128" style="enable-background:new 0 0 512 512" xml:space="preserve" class=""><g><path d="M96.36 80h-2.2V19.48a6 6 0 0 0-6-6H34.08a6 6 0 0 0-5.95 6v3.08H25a6 6 0 0 0-5.94 6v69.16a16.72 16.72 0 0 0 16.6 16.8h51.62A12.67 12.67 0 0 0 99.44 105a12.73 12.73 0 0 0-3.08-25Zm-51.13 0a1.5 1.5 0 1 0 0 3 9.35 9.35 0 0 1 9.28 9.41V93c0 5.28-5.25 9.23-10.08 9.4a13.72 13.72 0 0 1-13.3-13.78V46.46h60V80ZM34.08 16.48h54.13a3 3 0 0 1 3 3v24h-60v-24a3 3 0 0 1 2.87-3Zm53.2 95H35.66a13.72 13.72 0 0 1-13.6-13.8V28.56a3 3 0 0 1 2.94-3h3.13v63.09a16.71 16.71 0 0 0 15.63 16.74 1.42 1.42 0 0 0 .36 0h52.05a9.66 9.66 0 0 1-8.89 6.13Zm9.08-9.08H52.64a12.17 12.17 0 0 0 4.87-9.4v-.62A12.43 12.43 0 0 0 53.23 83h43.13a9.72 9.72 0 0 1 0 19.44ZM39.11 33.1v-1.23h3v1.23a2.17 2.17 0 1 0 4.33 0v-9.92h3v9.92a5.17 5.17 0 1 1-10.33 0ZM59 38.27h2.77a3.5 3.5 0 0 0 3.5-3.5v-8.33a3.5 3.5 0 0 0-3.5-3.5H59a3.5 3.5 0 0 0-3.5 3.5v8.33a3.5 3.5 0 0 0 3.5 3.5Zm-.5-11.83a.5.5 0 0 1 .5-.5h2.77a.5.5 0 0 1 .5.5v8.33a.5.5 0 0 1-.5.5H59a.51.51 0 0 1-.5-.5Zm14.29 11.83h3.81A4.57 4.57 0 0 0 80 30.6a4.56 4.56 0 0 0-3.37-7.66h-3.84a1.5 1.5 0 0 0-1.5 1.5v12.33a1.5 1.5 0 0 0 1.5 1.5Zm3.81-3h-2.31V32.1h2.31a1.59 1.59 0 0 1 0 3.17Zm-2.31-9.33h2.31a1.58 1.58 0 0 1 0 3.16h-2.31Zm-35.82 24H47v3h-8.53Zm0 7.43H47v3h-8.53Zm0 7.44H47v3h-8.53Zm0 7.43H47v3h-8.53Zm45.35-22.3v3H50.47v-3Zm-33.35 7.42h33.35v3H50.47Zm0 7.44h33.35v3H50.47Zm0 7.43h33.35v3H50.47Z" data-name="Layer 32" fill="#ffffff" data-original="#000000" class="" opacity="1"></path></g></svg>